<svg width="210" height="50" viewBox="0 0 210 50" fill="none" xmlns="http://www.w3.org/2000/svg">
<path d="M13 2.5C7.20101 2.5 2.5 7.20101 2.5 13V37C2.5 42.799 7.20102 47.5 13 47.5H197C202.799 47.5 207.5 42.799 207.5 37V13C207.5 7.20101 202.799 2.5 197 2.5H13Z" stroke="#2B2B2B" stroke-width="5"/>
<path d="M67 31V29H65V27H69V29H75V25H67V23H65V19H67V17H77V19H79V21H75V19H69V23H77V25H79V29H77V31H67ZM81 31V17H93V19H95V25H93V27H85V31H81ZM85 25H91V19H85V25ZM97 31V21H99V19H101V17H107V19H109V21H111V31H107V27H101V31H97ZM101 25H107V21H105V19H103V21H101V25ZM117 31V29H115V27H113V21H115V19H117V17H125V19H127V21H123V19H119V21H117V27H119V29H123V27H127V29H125V31H117ZM129 31V17H143V19H133V23H141V25H133V29H143V31H129Z" fill="#2B2B2B"/>
</svg>
